<svg xmlns="http://www.w3.org/2000/svg" version="1.1" xmlns:xlink="http://www.w3.org/1999/xlink" xmlns:svgjs="http://svgjs.dev/svgjs" width="500" height="500"><svg width="500" height="500" viewBox="0 0 500 500" fill="none" xmlns="http://www.w3.org/2000/svg">
<path d="M499.823 0H249.999V250.785H499.823V0Z" fill="#FEC800"></path>
<path d="M250.083 0H0.0841064V250.61H250.083V0Z" fill="#00A1E5"></path>
<path d="M499.648 250.693H249.999V499.729H499.648V250.693Z" fill="#E7000E"></path>
<path d="M250.083 250.693H0.0841064V499.729H250.083V250.693Z" fill="#009538"></path>
<path d="M435.44 474.986L430.629 473.586L281.574 435.286L125.696 393.402L83.5337 442.545L69.4506 443.594L50.3814 439.921L31.0497 428.204L32.5368 377.75L28.513 379.498L0.0841064 387.194V94.6984L28.8629 69.2527L335.02 45.1186L358.113 74.6741L358.463 47.9167L372.546 47.4795V90.1514L390.653 90.7635L391.266 100.644L393.102 102.131V109.301L390.653 112.537L390.303 129.063L396.251 134.922L401.062 142.18L429.666 182.053L424.068 191.672V254.543L499.645 239.328V491.425L435.44 474.986Z" fill="#12120D"></path>
<path d="M90.0123 126.439V113.935L107.507 113.323L107.682 126.09L90.0123 126.439Z" fill="white"></path>
<path d="M111.178 126.008L111.003 113.242L129.023 112.718L129.286 125.659L111.178 126.008Z" fill="white"></path>
<path d="M132.781 125.572L132.518 112.63L151.763 112.018V125.134L132.781 125.572Z" fill="white"></path>
<path d="M69.806 126.877V114.547L86.426 114.023V126.526L69.806 126.877Z" fill="white"></path>
<path d="M29.5617 127.757L29.8241 115.691L46.2691 115.253V127.321L29.5617 127.757Z" fill="white"></path>
<path d="M155.266 125.047V111.931L175.561 111.319L175.823 124.61L155.266 125.047Z" fill="white"></path>
<path d="M49.768 127.317V115.163L66.3005 114.638V126.968L49.768 127.317Z" fill="white"></path>
<path d="M203.201 124.08L203.026 110.439L223.757 109.827L223.582 123.643L203.201 124.08Z" fill="white"></path>
<path d="M179.321 124.604L179.146 111.225L199.439 110.526L199.703 124.167L179.321 124.604Z" fill="white"></path>
<path d="M227.166 123.559L227.254 109.743L249.122 109.044V123.122L227.166 123.559Z" fill="white"></path>
<path d="M27.7273 71.3532L27.5523 68.1179L335.372 42.7596L335.459 46.2572L333.885 46.3447L27.7273 71.6156V71.3532Z" fill="white"></path>
<path d="M346.918 293.017L365.287 295.29V317.676C365.287 317.676 364.237 321.785 358.376 322.048C357.327 322.048 356.189 322.048 354.965 321.873C347.968 320.824 346.567 316.538 346.742 314.353L346.918 293.105V293.017ZM499.909 351.253V341.984C494.398 340.585 493.261 336.825 493.436 334.727L494.048 313.391L499.909 314.177V293.105L429.23 338.049L423.807 337.263L499.909 289.082V284.709L418.733 335.951L353.828 273.08L288.748 321.086L499.909 351.341V351.253Z" fill="white"></path>
<path d="M460.811 355.885C473.757 357.547 477.605 364.367 477.605 364.367L477.343 398.295L442.617 391.037L443.228 358.508C443.228 358.508 447.952 354.137 460.898 355.798M426.696 393.048L499.911 407.389V401.88L485.216 399.344L485.828 366.816C485.828 366.816 489.065 361.831 499.911 362.706V354.835L427.571 344.342L426.696 393.048Z" fill="white"></path>
<path d="M459.496 422.083C469.906 424.182 474.367 430.389 474.367 430.389L473.842 478.221L442.876 471.575V425.58C442.876 425.58 449.087 419.984 459.496 422.083ZM499.909 489.851V470.963L485.214 467.816L485.826 432.925C485.826 432.925 491.249 429.165 499.909 429.777V411.765L426.606 397.424L425.294 470.613L499.909 489.763V489.851Z" fill="white"></path>
<path d="M355.665 318.373C356.628 318.547 357.59 318.547 358.377 318.547C360.826 318.46 361.613 317.498 361.788 317.149V307.617C361.439 311.202 359.077 314.088 356.102 314.262C352.866 314.438 350.329 311.465 350.329 307.355C350.329 303.245 352.866 300.009 356.102 299.923C359.077 299.747 361.439 302.371 361.788 305.956V298.436L350.417 296.949V314.438C350.417 314.438 350.241 317.586 355.665 318.373Z" fill="white"></path>
<path d="M497.55 317.415L497.026 334.904C497.026 334.904 497.026 337.09 500 338.226V317.765L497.55 317.415Z" fill="white"></path>
<path d="M353.825 307.184C353.825 309.282 354.962 310.769 356.011 310.681C357.061 310.681 358.198 309.02 358.198 306.921C358.198 304.823 357.061 303.336 356.011 303.336C354.962 303.336 353.825 304.997 353.825 307.096" fill="white"></path>
<path d="M306.858 370.84L306.683 374.426L291.462 371.89V368.305L306.858 370.84ZM307.995 397.247C307.995 397.247 313.243 391.739 322.077 393.838C330.913 396.023 334.761 402.232 334.761 402.232V433.711L307.995 426.454V397.161V397.247ZM308.607 364.719L308.869 338.05C308.869 338.05 313.155 333.939 320.941 334.465C330.913 335.251 335.199 341.722 335.199 341.722L335.023 373.288L312.106 368.916V380.721L334.586 384.656V388.853L308.607 384.569V383.082V368.13V367.518V364.631V364.719ZM341.759 343.034C341.759 343.034 343.771 337.35 355.843 339.361C367.914 341.372 372.288 349.067 372.288 349.067L372.113 378.272L341.41 372.939L341.672 343.034H341.759ZM393.281 344.957C403.253 346.444 410.076 354.052 410.076 354.052V386.056L378.935 379.323L378.673 350.029C378.673 350.029 383.397 343.383 393.368 344.87M343.597 404.768C343.597 404.768 349.107 398.909 358.204 401.183C367.301 403.456 371.238 410.102 371.238 410.102V443.33L343.597 436.072V404.768ZM379.985 412.113C379.985 412.113 385.671 406.167 395.206 408.44C404.74 410.801 408.851 417.534 408.851 417.534L408.239 452.249L379.898 444.816L380.072 412.025L379.985 412.113ZM421.797 469.825L423.109 396.898L336.248 379.935V375.387L423.197 392.438L424.072 343.908L290.063 324.408L288.926 435.81L421.885 469.912L421.797 469.825Z" fill="white"></path>
<path d="M132.781 451.033L163.572 451.906L223.579 467.996L290.146 485.659L333.62 495.366L347.616 499.825L360.3 500L334.757 491.955L291.109 482.162L224.716 464.586L164.272 448.409L132.256 447.447L132.781 451.033Z" fill="white"></path>
<path d="M48.5436 132.826L51.1678 135.624L64.7262 131.514L61.3148 128.978L48.5436 132.826Z" fill="white"></path>
<path d="M151.594 184.505L173.375 185.292V166.842L151.594 166.404V184.505Z" fill="white"></path>
<path d="M125.696 183.543L148.089 184.329V166.316L125.696 165.966V183.543Z" fill="white"></path>
<path d="M177.043 185.38L203.897 186.342V167.368L177.043 166.843V185.38Z" fill="white"></path>
<path d="M19.0688 328.523L19.2437 328.611L15.8323 333.857L22.0429 331.845L38.2255 290.923L36.476 286.375L19.0688 328.523Z" fill="white"></path>
<path d="M41.5499 426.196L40.6751 396.99L50.2098 399.614L51.4344 428.907L41.5499 426.196ZM29.3912 429.344L30.3534 429.606L54.321 441.411L65.4301 442.635L63.3308 386.323L27.9916 376.529L29.4786 429.344H29.3912Z" fill="white"></path>
<path d="M66.6564 385.973L68.9307 443.074L76.8033 443.947L86.5129 449.981L113.28 454.265L129.725 451.118L125.351 371.895L66.6564 385.973Z" fill="white"></path>
<path d="M0.0841064 186.868V199.372L50.5563 140.698L45.4829 134.927L0.0841064 186.868Z" fill="white"></path>
<path d="M11.3749 116.297L11.1125 128.101L26.0705 127.751L26.3329 115.86L11.3749 116.297Z" fill="white"></path>
<path d="M0.0841064 116.644V128.361L7.51935 128.186V128.099L7.78178 116.382L0.0841064 116.644Z" fill="white"></path>
<path d="M139.257 346.889L143.806 347.676V346.189L139.257 345.489V346.889Z" fill="white"></path>
<path d="M192.701 356.938L197.6 358.074V356.326L192.614 355.363L192.701 356.938Z" fill="white"></path>
<path d="M0.0841064 412.726L13.73 416.661L25.8013 419.721L25.7138 415.699L0.0841064 409.228V412.726Z" fill="white"></path>
<path d="M376.749 181.707L359.691 184.33V152.414L376.749 150.49V181.707ZM376.66 233.386L359.429 236.446V202.78L376.749 200.158V233.386H376.66ZM376.136 262.854L359.603 266.089V253.759L376.223 250.699V262.854H376.136ZM376.573 119.623V138.948L359.603 140.696L359.778 121.022L376.66 119.623H376.573ZM349.544 114.901V111.403L391.444 107.294V110.529L349.544 114.813V114.901ZM347.007 108.343L299.947 109.043V105.632L308.868 105.457V89.2803L312.367 89.1054L372.55 85.9575V89.4551L345.083 90.8543V101.26L341.584 101.435V91.0292L312.367 92.6031V105.457L347.095 104.845L346.919 108.343H347.007ZM306.244 124.694H315.954L316.13 142.708H306.507L306.332 124.694H306.244ZM316.13 237.233L306.77 236.883V204.704H316.041V237.145L316.13 237.233ZM306.157 186.604V153.725L316.13 153.9V186.778L306.157 186.604ZM346.919 115.076L303.533 115.776L305.02 282.178L314.817 280.167H307.032L307.119 254.109L315.954 254.371L316.13 279.905L340.884 274.921L280.002 319.691L253.323 296.082L228.743 314.794V314.619L220.083 312.958V308.498L227.256 309.81L226.206 213.798L219.383 213.186L222.445 209.426L230.406 210.213L231.542 307.449L250.087 293.371H249.999L301.433 282.965L299.947 115.95V112.365L347.007 111.753V115.251L346.919 115.076ZM344.121 269.499L340.622 270.111L341.759 117.087L345.258 116.912L344.121 269.499ZM268.719 287.599L251.136 290.747V263.815L268.456 260.842L268.631 287.513L268.719 287.599ZM269.331 210.563V244.228L251.136 247.638L250.436 213.012L269.243 210.563H269.331ZM269.418 157.485L287.963 155.911L287.35 190.189L269.156 192.025L269.418 157.485ZM298.809 205.667L299.072 238.72L287.875 240.731V206.977L298.722 205.667H298.809ZM299.684 281.478L287.875 283.402L287.701 256.47L299.422 254.897L299.684 281.478ZM323.215 84.5584C323.477 81.9352 323.039 73.016 331.349 72.7537C340.534 72.4913 339.397 85.4329 339.397 85.4329L323.215 85.9575V84.4709V84.5584ZM337.123 51.0679L361.003 84.2087L356.279 84.5584L334.586 54.4782L337.21 50.9805L337.123 51.0679ZM368.614 47.133V83.9463L365.115 84.1212V47.3079L368.614 47.133ZM391.619 100.123V103.621L349.894 108.168V104.67L391.619 100.123ZM231.98 354.668L282.89 364.199V367.697L231.892 358.254L232.067 354.668H231.98ZM238.278 326.25L247.113 327.474L247.375 354.581L238.278 352.919V326.25ZM259.359 329.135L259.621 356.767L250.874 355.193L250.611 327.911L259.359 329.135ZM270.555 330.709L270.818 358.866L263.295 357.466L263.033 329.66L270.555 330.709ZM282.626 332.371V361.051L274.404 359.564L274.142 331.233L282.626 332.371ZM282.102 419.375L265.045 415.003L264.782 380.463C264.782 380.463 265.045 368.134 273.879 369.708C282.714 371.282 282.714 384.748 282.714 384.748L282.102 419.288V419.375ZM240.028 418.676L239.764 375.392C239.764 375.392 238.627 364.375 247.113 365.948C255.598 367.522 255.598 377.49 255.598 377.49L256.21 422.523L240.028 418.676ZM188.33 398.739L187.631 365.511L203.376 368.746L203.988 402.674L188.33 398.739ZM200.752 362.013L189.73 359.39L189.555 351.695L200.665 353.794V362.013H200.752ZM186.581 314.357L202.501 316.806L203.114 350.909L187.28 348.11L186.581 314.357ZM185.444 262.766L201.539 264.515L202.151 298.88L186.143 296.607L185.444 262.766ZM184.482 214.498C191.829 215.022 197.777 215.46 200.752 215.634L201.276 247.726L185.093 246.24L184.394 214.498H184.482ZM162.35 392.18L161.564 360.264L176.084 363.237L176.872 395.853L162.263 392.18H162.35ZM160.339 310.334L174.772 312.609L175.647 346.186L161.126 343.65L160.339 310.422V310.334ZM159.115 259.793L173.548 261.367L174.422 294.858L159.989 292.846L159.202 259.793H159.115ZM157.977 212.661C162.701 213.012 167.599 213.361 172.323 213.624L173.11 245.103L158.764 243.791L157.977 212.661ZM136.108 385.535L135.322 354.93L150.017 357.903L150.892 389.295L136.108 385.535ZM146.605 343.738V350.995L136.546 349.246L136.371 342.077L146.605 343.65V343.738ZM133.572 289.174L132.697 256.907L147.131 258.482L148.092 291.185L133.572 289.174ZM131.56 210.913C134.272 211.088 139.52 211.437 145.906 211.875L146.78 242.654L132.347 241.343L131.56 211V210.913ZM93.0718 236.971L92.4595 206.191L104.881 207.065V207.589L105.493 238.107L92.9843 236.883L93.0718 236.971ZM71.2909 234.784L70.6786 204.617L83.0998 205.491L83.7121 236.008L71.2034 234.784H71.2909ZM74.1775 175.324C76.4518 175.236 78.2888 177.509 78.2888 180.396C78.2888 183.281 76.4518 185.817 74.1775 185.904C71.9032 185.992 70.0663 183.718 70.0663 180.833C70.0663 177.947 71.9032 175.499 74.1775 175.324ZM60.6191 195.523L60.3567 165.443H66.6548L67.4421 196.135L60.6191 195.523ZM50.5597 232.686L49.9474 203.131L61.3189 203.917L61.9312 233.823L50.4722 232.686H50.5597ZM49.5975 165.267H56.8578L57.1202 195.173L49.8599 194.561L49.5975 165.267ZM40.3253 193.686L40.0629 165.093H46.0985L46.361 194.211L40.4128 193.686H40.3253ZM31.228 274.221L30.6157 245.277L41.5499 246.502L42.1622 275.708L31.228 274.221ZM29.741 201.731L40.6752 202.519L41.2875 231.811L30.3533 230.762L29.8285 201.819L29.741 201.731ZM32.8026 174.012C35.0769 173.924 36.9138 176.198 36.9138 179.084C36.9138 181.969 35.0769 184.418 32.8026 184.593C30.5282 184.68 28.6913 182.494 28.6913 179.521C28.6913 176.548 30.5282 174.187 32.8026 174.012ZM11.8964 305.263V286.026L21.6934 287.162L22.0433 306.749L11.8964 305.263ZM10.3219 243.004L21.3435 244.228L21.9558 272.997L10.8467 271.511L10.3219 243.004ZM9.53461 202.955V200.244L20.4688 201.032L21.0811 229.713L10.0594 228.576L9.53461 202.868V202.955ZM32.1902 328.785C32.1902 328.785 32.2777 328.435 32.4527 328.435L39.713 328.086C39.713 328.086 39.9754 328.26 39.9754 328.348V330.359C39.9754 330.359 39.8879 330.709 39.713 330.709L32.4527 331.059C32.4527 331.059 32.1902 330.884 32.1902 330.796V328.785ZM35.1643 320.129C35.1643 320.129 35.2518 319.778 35.4268 319.778L42.6871 319.429C42.6871 319.429 42.9495 319.517 42.9495 319.691V321.702C42.9495 321.702 42.862 322.052 42.6871 322.052L35.4268 322.402C35.4268 322.402 35.1643 322.314 35.1643 322.139V320.129ZM47.1482 324.5V326.511C47.1482 326.511 47.0607 326.774 46.8858 326.862L39.6255 327.211C39.6255 327.211 39.3631 327.124 39.3631 326.948V324.938C39.3631 324.938 39.4505 324.588 39.6255 324.588L46.8858 324.238C46.8858 324.238 47.1482 324.413 47.1482 324.5ZM499.911 240.643V236.883L427.745 251.486V185.554L436.842 182.494L438.855 178.559L403.865 143.232L395.38 133.089V135.45H395.205V143.407L425.383 182.144L422.584 184.418L395.03 149.178L394.417 190.189L401.503 188.965L401.241 217.646L393.98 219.307L393.718 238.107L401.153 236.796V258.743L393.368 259.88L390.045 260.58L391.619 134.663H391.706L391.881 114.813V110.616L394.593 110.354V99.6859L391.706 99.9485L391.881 88.4058L374.999 88.1436V44.2474L355.317 45.2967V69.6057L335.898 42.4986L27.8166 68.1192L0.0874734 91.8161V96.3633L6.03567 91.2914L293.649 73.5406L255.16 108.867H252.711V123.033H256.56V126.094H256.384L248.862 136.674L210.287 167.454H207.399V185.03L254.548 135.363L299.684 69.8681L10.3219 87.6189L29.0412 71.6169L333.974 46.4335L273.53 137.374L220.258 206.453L218.071 209.252L217.547 209.951L215.01 213.186L114.852 207.065L116.777 205.404L114.153 202.431L113.891 183.193L122.113 183.456V165.967L94.7338 165.443L91.9347 162.994L110.041 129.503H107.592H106.193L87.561 163.869L110.392 184.156L110.654 203.743L114.677 208.377L111.966 210.737L52.834 143.32L0.0874734 204.617V259.531L1.83694 259.706L3.32399 313.833L0 314.007V321.527L12.7711 326.687L6.03567 338.404L12.7711 342.426L20.8187 339.978L21.0811 351.782L0.0874734 357.728V386.672L24.4051 379.677L23.2679 337.792L26.8544 336.829L27.8166 372.856L63.0684 382.65L61.9312 351.782L65.2552 350.995L66.4799 382.387L125.087 368.397L123.25 335.519L64.0306 348.46L57.5576 339.016L40.0629 295.557L24.58 334.731H24.4051L13.2085 338.404V338.054L13.0335 338.229L10.0594 336.393L15.7452 327.56L34.6395 282.09V281.829H34.8144L56.8578 277.806L51.3469 277.106L50.7346 247.726L62.1937 249.038L62.806 276.757L71.9907 275.096L71.4658 250.087L83.9746 251.486L84.4119 272.822L93.5967 271.16L93.2468 252.535L105.756 253.934L106.018 268.887L107.855 268.537L121.151 301.416L118.351 211.875H119.401V211.612H121.326H121.938V214.41L125.262 311.559L129.898 323.014L134.534 329.397L133.921 306.4L148.53 308.673L149.493 341.726L134.796 339.191L134.622 333.244L126.661 334.993L129.898 393.405L219.558 418.239L285.164 435.116L286.301 328.872L227.606 320.303L228.743 419.375L225.244 419.638L224.107 319.778L221.395 319.429V315.931L286.389 325.287V324.063L284.027 323.714V320.653H283.851V320.478H284.027L351.206 270.636L351.031 270.461L499.823 240.731L499.911 240.643Z" fill="white"></path>
</svg><style>@media (prefers-color-scheme: light) { :root { filter: none; } }
@media (prefers-color-scheme: dark) { :root { filter: none; } }
</style></svg>