  <svg width="1233" height="430" viewBox="0 0 1233 430" fill="none" xmlns="http://www.w3.org/2000/svg" class="absolute top-0 left-0 w-full h-full z-[2000]">
    <path d="M492.846 425.549C492.846 425.549 246.946 417.549 205.883 420.549C164.82 423.549 13.4603 436.05 8.20816 423.549C2.95607 411.048 -1.79596 349.544 2.95585 281.539C7.70766 213.534 8.20821 185.532 8.20821 150.529C8.20821 86.2985 -3.72897 12.019 8.20821 7.01859C20.1454 2.01822 331.937 9.51831 348.648 10.0188C365.36 10.5193 828.034 0.518115 854.773 1.01815C881.511 1.51819 1024.28 8.5187 1045.29 8.5187C1066.29 8.5187 1223.38 2.51826 1227.68 5.51848C1231.98 8.5187 1231.5 86.5244 1231.98 103.526C1232.46 120.527 1224.34 270.038 1224.82 300.04C1225.29 330.042 1238.66 418.049 1227.68 425.549C1216.7 433.05 935.944 419.549 881.034 425.549C826.124 431.55 691.476 425.549 670.467 425.549H492.846Z" stroke="black" stroke-width="2"/>
  </svg>